<?xml version="1.0" encoding="UTF-8" standalone="no"?>
<!-- Generator: Adobe Illustrator 21.0.0, SVG Export Plug-In . SVG Version: 6.00 Build 0)  -->
<svg id="Layer_1" style="enable-background:new 0 0 1519.5 882.5" xmlns="http://www.w3.org/2000/svg" xml:space="preserve" height="882.5px" viewBox="0 0 1519.5 882.5" width="1519.5px" version="1.1" y="0px" x="0px" xmlns:xlink="http://www.w3.org/1999/xlink">
<style type="text/css">
	.st0{fill:#D61520;}
	.st1{fill:#231F20;}
</style>
<title>swanger-logo</title>
	<path class="st0" d="m1519.5 313.6s-47-146.4-236.1-156-325.9-5.5-325.9-5.5c-2.2 0.1-9-7-10.8-8.3-10.1-7.4-20.6-14.3-31.3-20.8-35.4-21.5-73.5-38.2-113.3-49.6-51.9-14.7-106.5-18-160.3-15.9-50.9 2-101.6 3.3-152.1 10.5-29.5 4.1-58.7 10-87.4 17.7-14.5 3.9-28.9 8.3-43 13.2-6.9 2.4-13.8 4.9-20.6 7.6-4.5 1.7-16 9.1-20.5 8.3 42.8 6.9 95.3 16.6 120.1 41.4 82.9 9.7 234.8 19.3 345.2 27.6s473.6 2.8 541.3 20.7 120.1 24.9 194.7 109.1z"/>
	<path class="st0" d="m1072.1 134.1s-212.7-120.1-331.4-131.2-284.5 11-360.4 33.1-189.2 73.2-189.2 73.2-58 31.8-107.7 6.9 24.9 26.2 53.9 24.9c12.4-0.6 25.2-5.2 37-8.5 20.5-5.8 40.9-12.3 61.2-18.8 46.9-15.1 92.9-34.2 140.9-45.4 76.1-17.7 156.7-26.5 234.6-31.3 41.6-2.5 84.4-3.9 125.6 3.1 121.5 20.7 244.4 95.3 244.4 95.3l91.1-1.3z"/>
	<path class="st1" d="m1032 263.9s-113.2 55.2-262.4 58-302.4-11-357.6-30.4-68.8-34.5-99.4-34.5h-31.8v-19.3s93.9 15.2 158.8-41.4c0 0 95.3 96.7 254.1 93.9s338.3-26.3 338.3-26.3z"/>
	<path class="st1" d="m496.3 348.1s179.5 49.7 370.1 41.4c87.8-3.8 178-9 262.7-34.4 39.4-11.8 70.2-35 105.3-56 16.4-9.9 38.1-19.7 56.3-25.9 19.2-6.5 39.7-8.9 59.9-8.6 41.2 0.6 76.8 22 104 51.8 0 0-37.3-58-103.6-71.8-29.8-6.2-62.3 0.3-91.2 8.1-39.3 10.7-75.6 28.1-114.1 40.6-33.1 10.8-66.6 20.3-100.5 28.5-55 13.4-111.2 23.9-167.9 26.3-132.5 5.6-381 0-381 0z"/>
	<path class="st1" d="m106.9 328.8s37.3-85.6-11-114.6-78.7-16.6-95.3-98-5.5 62.1 18 95.3c23.3 33.1 57.9-9.7 88.3 117.3z"/>
	<path class="st1" d="m272.6 188s-100.8 8.3-120.1 11-51.1 11-70.4-20.7c-3.2-5.3-6.2-11.2-7.7-17.3-1.1-4.4-1.1-18.7 7.6-15 2.1 0.9 3.5 2.8 4.9 4.5 11 13.4 28.7 23.1 46.3 22.3 30.3-1.4 157.3 8.2 139.4 15.2z"/>
	<path class="st1" d="m215.3 280.5s-88.4 45.6-73.2 135.3c2.9 17.4 6.2 34.8 11 51.8 4 14.3 7.9 29.3 17.9 40.9-8.5-6.6-14.7-16.9-21.1-25.5-7.5-9.9-13.9-20.5-19.3-31.7-16.4-34.3-19.1-73.4 2-106.4 19.1-29.9 51.1-49.8 82.7-64.4z"/>
	<path class="st1" d="m1337.2 377.1c13.8-34.5 142.2-5.5 142.2-5.5s-26.2-41.4-85.6-75.9-111.9 20.7-111.9 20.7-73.2 60.8-147.8 78.7-465.4 13.8-515.1 11c-27.8-1.6-55.7-7.8-82.6-14.7-24.1-6.2-48.2-12.6-71.6-21.2-21.9-8-47.7-17.9-65.4-33.6-35.1-31-77.2-55.2-126.1-48-19.2 2.7-37.7 9-54.5 18.6-16.8 9.8-32.5 22.4-41.9 39.7-28 51.6-16.9 126 31.3 161.7 34.5 25.6 81.9 31.3 122.7 19.4 40.3-11.8 75.2-36.5 112.8-54.3 70.4-33.1 616.9-12.1 676.3-10.7 90.3 2.1 147 83.1 237.9 85.3 58 1.4 84.2-35.9 84.2-35.9s-62.1-12.4-96.7-27.6c-34.4-15.1-22-73.1-8.2-107.7zm-1046 114.6c-41.6 0-75.3-33.7-75.3-75.3s33.7-75.3 75.3-75.3 75.3 33.7 75.3 75.3c0 41.6-33.7 75.3-75.3 75.3zm142.9-52.4v-35.9l62.1 23.5-62.1 12.4zm827.2 4.1l-189.2-12.4c-4.1 0 189.2-29 189.2-29v41.4z"/>
	<path class="st0" d="m216.7 641.5c0 6.6-1.8 11.5-5.3 14.9-3 3-7.1 4.5-12 4.5-4 0-10.5-5.2-19.4-15.8-4.3-5-8.6-7.5-13.2-7.5-6.6 0-9.9 3-9.9 8.9s4.7 11.6 14.1 17.2c14.4 8.3 23.3 14.1 26.5 17.2 9.6 9.1 14.3 21.1 14.3 35.8 0 17.7-7.8 32.2-23.3 43.4-13.4 10-29.7 15.4-46.5 15.3-13.5 0-26.8-3.8-38.3-11.1-13.2-8.1-19.8-17.8-19.8-29 0.1-3 0.6-6 1.5-8.9 2.2-7.2 4.1-12 5.5-14.3 2.6-4.6 6.1-7 10.6-7.3 5.9 0 11.5 7 16.9 20.8s12.3 20.8 20.7 20.8c3.7 0.1 7.3-1.2 10.2-3.5s4.6-5.9 4.4-9.7c0-4.9-4.3-10.6-12.7-17.2-12.8-9.9-20.8-16.7-23.8-20.1-8.4-9.2-13-21.2-12.9-33.6-0.2-14.5 5.8-28.4 16.6-38.2 11-10.4 23.6-15.5 37.8-15.5 5.8 0 11.6 0.9 17.1 2.7 2.6 0.9 4.6 1.3 6 0.9 2.7-0.7 5.3-1.5 7.9-2.5 1.6-0.7 3.3-1.1 5-1.1 5.3 0 10.3 3.5 15.1 10.6 4.6 6.6 6.9 14.3 6.9 22.3z"/>
	<path class="st0" d="m459.8 625.4c-0.5 3-2.1 5.7-4.4 7.6-2.2 2-4.8 3.4-7.7 4.3-2.8 0.9-4.9 2.2-6.1 3.9-0.6 0.7-1.7 2.7-3.3 6.2l-51.1 108.8c-2.6 5.3-6.1 10.1-10.5 14.1-4.3 3.9-8.5 5.8-12.8 5.8-7.8 0-13.3-7.6-16.6-22.8-1.8-7.8-3.4-15.5-5.1-23.4-2.6-9-4.7-15.6-6.3-19.7-1.6-2.7-3-5.5-4.4-8.3-2.5 3.2-4.7 6.5-6.8 9.9-3.3 5.5-7.1 12.3-11.4 20.6-4.5 9.7-8.9 19.4-13.4 29-5.4 9.8-11.8 14.8-19 14.8-4.3 0-7.7-2-10.4-6-2.3-3.4-4-7.9-5.3-13.6l-24-106.4c-0.3-1.9-0.8-3.7-1.5-5.5-0.9-1.8-2.3-3.3-4.2-4.2-2.3-1.3-4.6-2.7-6.8-4.2-2.4-1.4-3.8-4-3.7-6.8 0-5.8 2.6-10.3 7.9-13.3 6.3-3.8 16.7-5.6 31.3-5.6h7.5c9 0 15.4 0.7 19 1.9 6 2 9 6.2 9 12.4 0 4.1-1.8 7.8-5.4 11s-5.4 6.4-5.4 9.6c0 8.8 1.7 19.8 5.1 33.1 3 11.7 5.2 18 6.5 18.9 1.8 1 5.8-4.5 12.3-16.5s9.7-21.3 9.7-27.8c0-5.1-3.2-10.6-9.6-16.4-3-2.8-4.6-6-4.6-9.5 0-6.5 4.6-11.1 13.6-13.8 6.4-1.9 15.2-2.8 26.1-2.8 10.4 0 18 0.7 23 1.9 8.1 2.2 12.2 6.3 12.2 12.4 0 4-3.2 8.5-9.7 13.6-2.9 2.3-4.3 4.8-3.9 7.4 1.7 12 4.2 23.9 7.3 35.6 3.2 12.1 5.7 18.2 7.6 18.2 2.6 0.2 6.6-6 12.1-18.9 5.3-12.2 9.4-25 12.3-38 0.6-2.6-0.7-5.6-3.9-8.9s-4.8-6.3-4.8-8.9c0-5.2 3.7-9.1 11.3-11.6 5.6-1.8 12.7-2.7 21.2-2.7 7.5 0 13.5 0.7 17.8 2.2 6.4 2 9.7 5.6 9.7 10.5-0.2 0.6-0.4 1.2-0.4 1.9z"/>
	<path class="st0" d="m600.2 756.7c0 7.4-4.5 12.3-13.4 14.9-5.4 1.6-14 2.3-25.8 2.3h-6.3c-2.2 0-4.4 0.2-6.5 0.6-7.8 0-13.5-0.8-17.3-2.4-5.2-2.2-7.8-6.2-7.8-12 0-3 2.3-6.2 6.8-9.5s6.8-6.3 6.8-8.9c0.1-2.4-1.2-4.7-3.3-5.8-2.4-1.3-5.1-2-7.8-1.9h-28.9c-2.6 0-5 1-6.9 2.7s-3 4.2-3 6.7c0 2.2 2.1 4.3 6.1 6.4s6.1 5.5 6.1 10.3c0 5.9-4.4 10-13.1 12.2-5.6 1.4-13.9 2.2-24.8 2.2-8.2 0-14.3-0.8-18.4-2.3-6.2-2.4-9.4-7.1-9.4-13.9-0.1-3.6 1.9-7 5.1-8.7 5.2-3 7.9-4.7 8.1-5 3.4-3.9 9.3-12.9 17.5-27.1 9-15.5 17.2-30.9 24.3-46.1 8.7-18.2 14-32.3 16.1-42.2 1.7-8.2 4.3-14 7.9-17.1s9-4.8 16.2-4.8c10.8 0 19.4 4.2 26 12.8 5.1 6.7 8.9 16.5 11.6 29.4l17.5 81.1c0.6 3.1 1.5 6.2 2.5 9.2 0.6 2 1.5 3.8 2.8 5.4 3.3 1.6 5.6 2.7 7.1 3.5 2.8 1.4 4.2 4.2 4.2 8zm-70.1-55.2c-0.2-7.1-1.6-14.1-4.1-20.8-2.8-7.6-5-11.4-6.7-11.4-1.9 0-5.6 6.5-11.1 19.5-3 7.2-4.6 12.2-4.6 15.2 0 1 0.6 1.8 1.5 2.3 1.5 0.7 3.1 1 4.8 0.9h8.1c3 0.1 6.1-0.2 9-1 2-0.6 3.2-2.6 3.1-4.7z"/>
	<path class="st0" d="m789.3 625c-0.6 5.1-4 8.2-10.1 9.2s-10 6.8-11.4 17.4l-12.9 87.7c-1.5 9.8-3.7 17.7-6.9 23.4-4.2 7.4-9.7 11.1-16.6 11.1-5.1 0.1-10.1-1.9-13.7-5.5-2.7-2.6-5.9-7.1-9.7-13.6l-36-61.6c-1.7-3-2.6-4.6-2.8-4.8-1.1-1.5-2.8-2.3-4.6-2.3-1.7 0-2.8 1.1-3.6 3.5-0.9 3-1.4 6-1.7 9.1l-3.7 38.7c-0.5 4.7 2.6 9.6 9.4 14.6 3.4 2.6 5.1 5.5 5.1 8.5 0 5.9-4 9.8-12 11.6-4.5 1-12.1 1.6-22.8 1.6-10.5 0-18.2-1.6-23.1-4.9-3.9-2.3-6.2-6.5-6.1-11.1 0-3.7 2.1-6.4 6.1-8.3 5-2.3 7.8-4.6 8.6-6.6 2-4.6 3.7-9.2 5.1-14 3.3-10.4 5.8-21 7.4-31.8 2.6-16.7 3.8-33.6 3.7-50.5 0-6.2-2.8-9.9-8.3-11.1s-8.3-5-8.3-11.4c0-7.3 6-12 18.2-14.1 5-0.9 10.1-1.4 15.2-1.4 13.9 0 22.8 1.1 26.6 3.3 2.2 1.3 5.9 6.2 10.9 14.7l33.9 56.5c0.6 1.1 1.3 2.1 2 3.1 1.1 1.7 2.8 2.9 4.8 3.3 1.9 0.3 3.5-3.4 4.9-11.5 1.4-8 2.1-16 2.2-24.1 0-6.3-0.3-10.7-1-13.1-1.3-4.6-4-6.7-7.9-6.7-2.4 0.1-4.6-1-5.9-3-1.4-2.2-2.2-4.8-2.1-7.4 0.5-5.7 3.5-9.6 9.2-11.6 3.6-1.3 9.7-1.9 18-1.9h5.1c11.5 0 19.1 0.3 22.8 1.1 8.3 1.8 12.6 5.8 12.6 12-0.5 0.7-0.6 1.3-0.6 1.9z"/>
	<path class="st0" d="m953.4 680.8c0 25.8-6.9 47.4-20.7 65-14.8 18.8-34 28.2-57.9 28.2h-75.9c-3.7 0-6.5-0.7-8.3-1.9-2.5-1.8-3.7-5.1-3.7-9.9-0.2-3.7 1.4-7.3 4.3-9.7 3.4-1.8 6.9-3.7 10.2-5.6 1.5-4.9 2.8-9.8 4.3-14.7 2.7-10.4 4.8-20.9 6.1-31.6 2.2-16.6 3.3-33.4 3.3-50.2 0-6.6-2.4-11.1-7.3-13.6s-7.3-6.2-7.3-11.1c0-5.1 2.1-8.9 6.2-11.3 4.2-2.4 9.6-3.5 16.1-3.5 3.5 0 8.1 0.1 13.8 0.5s9.5 0.5 11.2 0.5c6.3 0 11.7-0.1 16.2-0.3 15.5-0.9 23.9-1.4 25-1.4 19 0 34.1 5.4 45.2 16 12.9 12 19.2 30.2 19.2 54.6zm-55.5-5.5c0-11.5-1.7-20.6-5-27.4-3.6-7.4-8.8-11.1-15.7-11.1-3.2 0-6.2 1.6-8.1 4.2-2.2 2.7-3.4 6.2-3.3 9.7l-5.8 80.4c0 1 0 2-0.1 3-0.1 0.9-0.1 1.9-0.1 2.8-0.1 2.6 0.4 5.2 1.5 7.6 1 1.8 2.9 2.8 5.7 2.8 9.5 0 16.6-4.9 21.7-14.6 6.2-11.3 9.2-30.6 9.2-57.4z"/>
	<path class="st0" d="m1098.9 642.3c0 5.1-1 9.5-3.2 12.8-2.3 3.8-6.4 6-10.8 5.8-5 0-9-3.9-12.2-11.5s-10.3-11.5-21.3-11.5c-4-0.1-8 0.7-11.6 2.4-3.2 1.6-5 4.5-5.3 8.4l-2 25.8c0 2.2 1.8 3.3 5.3 3.3s6.2-3.8 8.5-11.2 5.4-11.2 9.3-11.2c5.3 0 9.2 3.4 11.4 10.3 1.9 5.2 2.8 11.9 2.8 19.7 0 11.7-1.3 21.2-3.7 28.3-3.3 9.6-8.7 14.4-16.4 14.4-4.8 0-7.6-4-8.3-12s-3-12-7.1-12c-1.9 0-3.4 1.6-4.7 4.7-1.3 3.2-1.9 6.7-1.9 10.2v20c0 3.1 0.7 5.1 2.2 6.2 1.5 1 4.8 1.6 9.8 1.6 13.5 0 23.3-5 29.3-15s11.3-15 16.1-15c3.6 0 6.5 1.7 8.7 5.1s3.2 7.6 3.2 12.7c0.1 9.1-2.1 18-6.6 25.9-4.4 7.9-9.5 12.5-15.4 14.1-1.1 0.2-2.2 0.3-3.3 0.3-1.4 0-2.9-0.3-4.3-0.7-2.5-0.8-5.2-1.3-7.8-1.5h-61.4c-3.4 0-6.7 0.3-10.1 0.8-9.5 1.3-15.3 1.8-17.5 1.8-4.7 0-8.3-0.8-10.8-2.5-2.9-2-4.7-5.5-5.1-10.3 0-3.9 1.6-7.6 4.4-10.3 3.4-2.4 6.9-5 10.4-7.5 4.2-8.7 7.6-21.9 10.3-39.8 2.8-18.6 4.2-37.3 4.2-56.1 0.2-5-2.4-9.6-6.7-12.1-4.4-2.7-6.7-6.5-6.7-11.2-0.2-4.6 2-9 5.8-11.7 3.8-2.8 8.7-4.2 14.5-4.2 2.7 0 5.4 0.1 8.1 0.3 1.9 0.2 3 0.3 3.3 0.3h61.2c3.4-0.1 6.8-0.4 10.1-1.1 2.5-0.6 5-0.9 7.6-1.1 3.8 0 7.7 3.3 11.4 10 4.6 7.2 6.3 15.1 6.3 24.3z"/>
	<path class="st0" d="m1264.8 757.2c0 5.8-3.4 10.3-10.4 13.2-6.4 2.5-13.3 3.7-20.2 3.5-10.9 0-19.4-3.1-25.4-9.3-5.5-5.7-8.8-13.8-10.1-24.2l-3-24.1c-0.5-4.3-1.5-7.8-2.8-10-1.9-3-4.8-4.5-8.6-4.5-2.7 0-4.6 0.3-5.7 1-1.1 0.6-1.7 1.8-1.7 3l-2.1 32.1c-0.1 4.4 2.2 8.5 6 10.6 4 2.6 6 5.5 6 8.5 0 7.1-5.1 11.9-15.4 14.4-6.3 1.6-16.5 2.3-30.6 2.3-8.8 0-16.4-1.1-23-3.5-8.1-3-12.2-7.2-12.2-12.8 0.3-4.2 2.2-7.3 5.6-9.1 4.6-2.4 7.5-4.7 8.8-6.7 3.7-6.2 7.1-19.5 10.1-40 2.6-18.2 3.8-36.6 3.7-55 0-6.5-2.4-10.4-7.1-11.9s-7.1-4.2-7.1-8.5c0-5.6 2.4-9.7 7.3-12.3 5.2-2.7 11.1-4.1 17-4h72.8c10.7 0 19.5 3.2 26.5 9.7 7.7 7.1 11.4 17 11.4 29.6 0 8.7-2.3 16.1-6.9 22.1-5.1 4.8-10.1 9.6-15 14.4 0 1.9 1.9 4.3 5.6 7.3s6.1 5.6 7.2 8.1c1.1 2.8 1.7 5.7 1.9 8.7 0.2 3.3 0.4 6 0.5 8.2l1.8 19.8c0.5 5.4 3 9 7.8 11.3s7.3 5 7.3 8.1zm-64.3-107.6c0-4.8-0.5-8.4-1.6-11-1.4-3.5-4.9-5.7-8.6-5.5-3.6 0-5.7 2.5-6.1 7.4l-3.3 32.4c-0.2 1.4 0.4 2.8 1.5 3.8 0.8 1 2 1.6 3.3 1.7 5.6 0 9.7-3.2 12.2-9.6 1.7-4.8 2.6-11.1 2.6-19.2z"/>
	<path class="st0" d="m1328.8 639c-1.8 12.7-8.2 26.2-19.2 40.8-10.4 13.7-17.7 20-22 18.9-2.5-0.5-4.7-1.9-6.1-4-1.5-2.5-2.6-5.3-3.1-8.2 3.6-4.6 7.2-9.1 10.5-13.7s5.3-8.7 5.9-12c0.3-2-0.8-4.2-3.5-6.4-6.4-5.4-9.7-11.6-9.7-18.7 0-1.3 0.1-2.6 0.2-3.9 0.5-6.7 3.4-13.1 8.1-17.9 4.5-4.8 10.7-7.5 17.3-7.4 7.7 0 13.3 2.5 17.2 7.5 3.4 4.6 5.1 10.6 5.1 18.1-0.2 2.4-0.4 4.7-0.7 6.9z"/>
	<path class="st0" d="m1463.9 641.5c0 6.6-1.8 11.5-5.3 14.9-3 3-7.1 4.5-12 4.5-4 0-10.5-5.2-19.4-15.8-4.3-5-8.6-7.5-13.2-7.5-6.6 0-9.9 3-9.9 8.9s4.7 11.6 14.1 17.2c14.4 8.3 23.3 14.1 26.5 17.2 9.6 9.1 14.3 21.1 14.3 35.8 0 17.7-7.8 32.2-23.3 43.4-13.4 10-29.7 15.4-46.5 15.3-13.5 0-26.8-3.8-38.3-11.1-13.2-8.1-19.8-17.8-19.8-29 0.1-3 0.6-6 1.5-8.9 2.2-7.2 4.1-12 5.5-14.3 2.6-4.6 6.1-7 10.6-7.3 5.9 0 11.5 7 16.9 20.8s12.3 20.8 20.7 20.8c3.7 0.1 7.3-1.2 10.2-3.5s4.6-5.9 4.4-9.7c0-4.9-4.3-10.6-12.7-17.2-12.8-9.9-20.8-16.7-23.8-20.1-8.4-9.2-13-21.2-12.9-33.6-0.2-14.5 5.8-28.4 16.5-38.2 11-10.4 23.6-15.5 37.8-15.5 5.8 0 11.6 0.9 17.2 2.7 2.6 0.9 4.6 1.3 6 0.9 2.7-0.7 5.3-1.5 7.9-2.5 1.6-0.7 3.3-1.1 5-1.1 5.3 0 10.3 3.5 15.1 10.6 4.6 6.5 6.9 14.3 6.9 22.3z"/>
	<path class="st1" d="m215.9 634.1c0 6.6-1.8 11.5-5.3 14.9-3 3-7.1 4.5-12 4.5-4 0-10.5-5.2-19.4-15.8-4.3-5-8.6-7.5-13.2-7.5-6.6 0-9.9 3-9.9 8.9s4.7 11.6 14.1 17.2c14.4 8.3 23.3 14.1 26.5 17.2 9.6 9.1 14.3 21.1 14.3 35.8 0 17.7-7.8 32.2-23.3 43.4-13.4 10-29.7 15.4-46.5 15.3-13.5 0-26.8-3.8-38.3-11.1-13.2-8.1-19.8-17.8-19.8-29 0.1-3 0.6-6 1.5-8.9 2.2-7.2 4.1-12 5.5-14.3 2.6-4.6 6.1-7 10.6-7.3 5.9 0 11.5 7 16.9 20.8s12.3 20.8 20.7 20.8c3.7 0.1 7.3-1.2 10.2-3.5s4.6-5.9 4.4-9.7c0-4.9-4.3-10.6-12.7-17.2-12.8-9.9-20.8-16.7-23.8-20.1-8.4-9.2-13-21.2-12.9-33.6-0.2-14.5 5.8-28.4 16.5-38.2 11-10.4 23.6-15.5 37.8-15.5 5.8 0 11.6 0.9 17.1 2.7 2.6 0.9 4.6 1.3 6 0.9 2.7-0.7 5.3-1.5 7.9-2.5 1.6-0.7 3.3-1.1 5-1.1 5.3 0 10.3 3.5 15.1 10.6 4.6 6.6 6.9 14.3 7 22.3z"/>
	<path class="st1" d="m458.9 618c-0.5 3-2.1 5.7-4.4 7.6-2.2 2-4.8 3.4-7.7 4.3-2.8 0.9-4.9 2.2-6.1 3.9-0.6 0.7-1.7 2.7-3.3 6.2l-51.1 108.8c-2.6 5.3-6.1 10.1-10.5 14.1-4.3 3.9-8.5 5.8-12.8 5.8-7.8 0-13.3-7.6-16.6-22.8-1.8-7.8-3.4-15.5-5.1-23.4-2.6-9-4.7-15.6-6.3-19.7-1.6-2.7-3-5.5-4.4-8.3-2.5 3.2-4.7 6.5-6.8 9.9-3.3 5.5-7.1 12.3-11.4 20.6-4.5 9.7-8.9 19.4-13.4 29-5.4 9.8-11.8 14.8-19 14.8-4.3 0-7.7-2-10.4-6-2.3-3.4-4-7.9-5.3-13.6l-24-106.4c-0.3-1.9-0.8-3.7-1.5-5.5-0.9-1.8-2.3-3.3-4.2-4.2-2.3-1.3-4.6-2.7-6.8-4.2-2.4-1.4-3.8-4-3.7-6.8 0-5.8 2.6-10.3 7.9-13.3 6.3-3.8 16.7-5.6 31.3-5.6h7.5c9 0 15.4 0.7 19 1.9 6 2 9 6.2 9 12.4 0 4.1-1.8 7.8-5.4 11s-5.4 6.4-5.4 9.6c0 8.8 1.7 19.8 5.1 33.1 3 11.7 5.2 18 6.5 18.9 1.8 1 5.8-4.5 12.3-16.5s9.7-21.3 9.7-27.8c0-5.1-3.2-10.6-9.6-16.4-3-2.8-4.6-6-4.6-9.5 0-6.5 4.6-11.1 13.6-13.8 6.4-1.9 15.2-2.8 26.1-2.8 10.4 0 18 0.7 23 1.9 8.1 2.2 12.2 6.3 12.2 12.4 0 4-3.2 8.5-9.7 13.6-2.9 2.3-4.3 4.8-3.9 7.4 1.7 12 4.2 23.9 7.3 35.6 3.2 12.1 5.7 18.2 7.6 18.2 2.6 0.2 6.6-6 12.1-18.9 5.3-12.2 9.4-25 12.3-38 0.6-2.6-0.7-5.6-3.9-8.9s-4.8-6.3-4.8-8.9c0-5.2 3.7-9.1 11.3-11.6 5.6-1.8 12.7-2.7 21.2-2.7 7.5 0 13.5 0.7 17.8 2.2 6.4 2 9.7 5.6 9.7 10.5-0.2 0.6-0.3 1.2-0.4 1.9z"/>
	<path class="st1" d="m599.4 749.3c0 7.4-4.5 12.3-13.4 14.9-5.4 1.6-14 2.3-25.8 2.3h-6.3c-2.2 0-4.4 0.2-6.5 0.6-7.8 0-13.5-0.8-17.3-2.4-5.2-2.2-7.8-6.2-7.8-12 0-3 2.3-6.2 6.8-9.5s6.8-6.3 6.8-8.9c0.1-2.4-1.2-4.7-3.3-5.8-2.4-1.3-5.1-2-7.8-1.9h-28.9c-2.6 0-5 1-6.9 2.7s-3 4.2-3 6.7c0 2.2 2.1 4.3 6.1 6.4s6.1 5.5 6.1 10.3c0 5.9-4.4 10-13.1 12.2-5.6 1.4-13.9 2.2-24.8 2.2-8.2 0-14.3-0.8-18.4-2.3-6.2-2.4-9.4-7.1-9.4-13.9-0.1-3.6 1.9-7 5.1-8.7 5.2-3 7.9-4.7 8.1-5 3.4-3.9 9.3-12.9 17.5-27.1 9.1-15.5 17.2-30.9 24.3-46.1 8.7-18.2 14-32.3 16.1-42.2 1.7-8.2 4.3-14 7.9-17.1s9-4.8 16.2-4.8c10.8 0 19.4 4.2 26 12.8 5.1 6.7 8.9 16.5 11.6 29.4l17.5 81.1c0.6 3.1 1.5 6.2 2.5 9.2 0.6 2 1.5 3.8 2.8 5.4 3.3 1.6 5.6 2.7 7.1 3.5 2.8 1.4 4.2 4.2 4.2 8zm-70.1-55.1c-0.2-7.1-1.6-14.1-4.2-20.8-2.8-7.6-5-11.4-6.7-11.4-1.9 0-5.6 6.5-11.1 19.5-3 7.2-4.6 12.2-4.6 15.2 0 1 0.6 1.8 1.5 2.3 1.5 0.7 3.1 1 4.8 0.9h8.1c3 0.1 6.1-0.2 9-1 2-0.7 3.3-2.7 3.2-4.7z"/>
	<path class="st1" d="m788.4 617.6c-0.6 5.1-4 8.2-10.1 9.2s-10 6.8-11.4 17.4l-12.9 87.8c-1.5 9.8-3.7 17.7-6.9 23.4-4.2 7.4-9.7 11.1-16.6 11.1-5.1 0.1-10-1.9-13.7-5.4-2.7-2.6-5.9-7.1-9.7-13.6l-36-61.6c-1.7-3-2.6-4.6-2.8-4.8-1.1-1.5-2.8-2.3-4.6-2.3-1.7 0-2.8 1.1-3.6 3.5-0.9 3-1.4 6-1.7 9.1l-3.7 38.7c-0.5 4.7 2.6 9.6 9.4 14.6 3.4 2.6 5.1 5.5 5.1 8.5 0 5.9-4 9.8-12 11.6-4.5 1-12.1 1.6-22.8 1.6-10.5 0-18.2-1.6-23.1-4.9-3.9-2.3-6.2-6.5-6.1-11.1 0-3.7 2.1-6.4 6.1-8.3 5-2.3 7.8-4.6 8.6-6.6 2-4.6 3.7-9.2 5.1-14 3.3-10.4 5.8-21 7.4-31.8 2.6-16.7 3.8-33.6 3.7-50.5 0-6.2-2.8-9.9-8.3-11.1s-8.3-5-8.3-11.4c0-7.3 6-12 18.2-14.1 5-0.9 10.1-1.4 15.3-1.4 13.9 0 22.8 1.1 26.6 3.3 2.2 1.3 5.9 6.2 10.9 14.7l33.9 56.5c0.6 1.1 1.3 2.1 2 3.1 1.1 1.7 2.8 2.9 4.8 3.3 1.9 0.3 3.5-3.4 4.9-11.5 1.4-7.9 2.1-16 2.1-24.1 0-6.3-0.3-10.7-1-13.1-1.3-4.6-4-6.7-7.9-6.7-2.4 0.1-4.6-1-5.9-3-1.4-2.2-2.2-4.8-2.1-7.4 0.5-5.7 3.5-9.6 9.2-11.6 3.6-1.3 9.7-1.9 18-1.9h5.1c11.5 0 19.1 0.3 22.8 1.1 8.3 1.8 12.6 5.8 12.6 12-0.4 0.6-0.6 1.1-0.6 1.7z"/>
	<path class="st1" d="m952.6 673.4c0 25.8-6.9 47.4-20.7 65-14.8 18.8-34 28.2-57.9 28.2h-75.9c-3.7 0-6.5-0.7-8.3-1.9-2.5-1.8-3.7-5.1-3.7-9.9-0.2-3.7 1.4-7.3 4.3-9.7 3.4-1.8 6.9-3.7 10.2-5.6 1.5-4.9 2.8-9.8 4.3-14.7 2.7-10.4 4.8-20.9 6.1-31.6 2.2-16.6 3.2-33.4 3.2-50.1 0-6.6-2.4-11.1-7.3-13.6s-7.3-6.2-7.3-11.1c0-5.1 2.1-8.9 6.2-11.3 4.2-2.4 9.6-3.5 16.1-3.5 3.5 0 8.1 0.1 13.8 0.5s9.5 0.5 11.2 0.5c6.3 0 11.7-0.1 16.2-0.3 15.5-0.9 23.9-1.4 25-1.4 19 0 34.1 5.4 45.2 16 12.9 11.9 19.3 30.1 19.3 54.5zm-55.5-5.5c0-11.5-1.7-20.6-5-27.4-3.6-7.4-8.8-11.1-15.7-11.1-3.2 0-6.2 1.6-8.1 4.2-2.2 2.7-3.4 6.2-3.3 9.7l-5.8 80.4c0 1 0 2-0.1 3-0.1 0.9-0.1 1.9-0.1 2.8-0.1 2.6 0.4 5.2 1.5 7.6 1 1.8 2.9 2.8 5.7 2.8 9.5 0 16.6-4.9 21.7-14.6 6.1-11.3 9.2-30.6 9.2-57.4z"/>
	<path class="st1" d="m1098.1 634.9c0 5.1-1 9.5-3.2 12.8-2.3 3.8-6.4 6-10.8 5.8-5 0-9-3.9-12.2-11.5s-10.3-11.5-21.3-11.5c-4-0.1-8 0.7-11.6 2.4-3.2 1.6-5 4.5-5.3 8.4l-2 25.8c0 2.2 1.8 3.3 5.3 3.3s6.2-3.8 8.5-11.2 5.4-11.2 9.3-11.2c5.3 0 9.2 3.4 11.4 10.3 1.9 5.2 2.8 11.9 2.8 19.7 0 11.7-1.3 21.2-3.7 28.3-3.3 9.6-8.7 14.4-16.4 14.4-4.8 0-7.6-4-8.3-12s-3-12-7.1-12c-1.9 0-3.4 1.6-4.7 4.7-1.3 3.2-1.9 6.7-1.9 10.2v20.2c0 3.1 0.7 5.1 2.2 6.2 1.5 1 4.8 1.6 9.8 1.6 13.5 0 23.3-5 29.3-15s11.3-15 16.1-15c3.6 0 6.5 1.7 8.7 5.1s3.2 7.6 3.2 12.7c0.1 9.1-2.1 18-6.6 25.9-4.4 7.9-9.5 12.5-15.4 14.1-1.1 0.2-2.2 0.3-3.3 0.3-1.4 0-2.9-0.3-4.3-0.7-2.5-0.8-5.2-1.3-7.8-1.5h-61.4c-3.4 0-6.7 0.3-10.1 0.8-9.5 1.3-15.3 1.8-17.5 1.8-4.7 0-8.3-0.8-10.8-2.5-2.9-2-4.7-5.5-5.1-10.3 0-3.9 1.6-7.6 4.4-10.3 3.4-2.4 6.9-5 10.4-7.5 4.2-8.7 7.6-21.9 10.3-39.8 2.8-18.6 4.2-37.3 4.2-56.1 0.2-5-2.4-9.6-6.7-12.1-4.4-2.7-6.7-6.5-6.7-11.2-0.1-4.6 2.1-9 5.8-11.6 3.8-2.8 8.7-4.2 14.5-4.2 2.7 0 5.4 0.1 8.1 0.3 1.9 0.2 3 0.3 3.3 0.3h61.2c3.4-0.1 6.8-0.4 10.1-1.1 2.5-0.6 5-0.9 7.6-1.1 3.8 0 7.7 3.3 11.4 10 4.5 6.9 6.3 14.8 6.3 24z"/>
	<path class="st1" d="m1264 749.8c0 5.8-3.4 10.3-10.4 13.2-6.4 2.5-13.3 3.7-20.2 3.5-10.9 0-19.4-3.1-25.4-9.3-5.5-5.7-8.8-13.8-10.1-24.2l-3-24c-0.5-4.3-1.5-7.8-2.8-10-1.9-3-4.8-4.5-8.6-4.5-2.7 0-4.6 0.3-5.7 1-1.1 0.6-1.7 1.8-1.7 3l-2.1 32.2c-0.1 4.4 2.2 8.5 6 10.6 4 2.6 6 5.5 6 8.5 0 7.1-5.1 11.9-15.4 14.4-6.3 1.6-16.5 2.3-30.6 2.3-8.8 0-16.4-1.1-23-3.5-8.1-3-12.2-7.2-12.2-12.8 0.3-4.2 2.2-7.3 5.6-9.1 4.6-2.4 7.5-4.7 8.8-6.7 3.7-6.2 7.1-19.5 10.1-40 2.6-18.2 3.8-36.6 3.7-55 0-6.5-2.4-10.4-7.1-11.9s-7.1-4.2-7.1-8.5c0-5.6 2.4-9.7 7.3-12.3 5.2-2.7 11.1-4.1 17-4h72.7c10.7 0 19.5 3.2 26.5 9.7 7.7 7.1 11.4 17 11.4 29.6 0 8.7-2.3 16.1-6.9 22.1-5.1 4.8-10.1 9.6-15 14.4 0 1.9 1.9 4.3 5.6 7.3s6.1 5.6 7.2 8.1c1.1 2.8 1.7 5.7 1.9 8.7 0.2 3.3 0.4 6 0.5 8.2l1.8 19.8c0.5 5.4 3 9 7.8 11.3s7.4 4.8 7.4 7.9zm-64.3-107.6c0-4.8-0.5-8.4-1.6-11-1.4-3.5-4.9-5.7-8.6-5.5-3.6 0-5.7 2.5-6.1 7.4l-3.3 32.4c-0.2 1.4 0.4 2.8 1.5 3.8 0.8 1 2 1.6 3.3 1.7 5.6 0 9.7-3.2 12.2-9.6 1.6-4.8 2.6-11.1 2.6-19.2z"/>
	<path class="st1" d="m1327.9 631.5c-1.8 12.7-8.2 26.2-19.2 40.8-10.4 13.7-17.7 20-22 18.9-2.5-0.5-4.7-1.9-6.1-4-1.5-2.5-2.6-5.3-3.1-8.2 3.6-4.6 7.2-9.1 10.5-13.7s5.3-8.7 5.9-12c0.3-2-0.8-4.2-3.5-6.4-6.4-5.4-9.7-11.6-9.7-18.7 0-1.3 0.1-2.6 0.2-3.9 0.5-6.7 3.4-13.1 8.1-17.9 4.5-4.8 10.7-7.5 17.3-7.4 7.7 0 13.3 2.5 17.2 7.5 3.4 4.6 5.1 10.6 5.1 18.1-0.1 2.5-0.3 4.7-0.7 6.9z"/>
	<path class="st1" d="m1463.1 634.1c0 6.6-1.8 11.5-5.3 14.9-3 3-7.1 4.5-12 4.5-4 0-10.5-5.2-19.4-15.8-4.3-5-8.6-7.5-13.2-7.5-6.6 0-9.9 3-9.9 8.9s4.7 11.6 14.1 17.2c14.4 8.3 23.3 14.1 26.5 17.2 9.6 9.1 14.3 21.1 14.3 35.8 0 17.7-7.8 32.2-23.3 43.4-13.4 10-29.7 15.4-46.5 15.3-13.5 0-26.8-3.8-38.3-11.1-13.2-8.1-19.8-17.8-19.8-29 0.1-3 0.6-6 1.5-8.9 2.2-7.2 4.1-12 5.5-14.3 2.6-4.6 6.1-7 10.6-7.3 5.9 0 11.5 7 16.9 20.8s12.3 20.8 20.7 20.8c3.7 0.1 7.3-1.2 10.2-3.5s4.6-5.9 4.4-9.7c0-4.9-4.3-10.6-12.7-17.2-12.8-9.9-20.8-16.7-23.8-20.1-8.4-9.2-13-21.2-12.9-33.6-0.2-14.5 5.8-28.4 16.5-38.2 11-10.4 23.6-15.5 37.8-15.5 5.8 0 11.6 0.9 17.2 2.7 2.6 0.9 4.6 1.3 6 0.9 2.7-0.7 5.3-1.5 7.9-2.5 1.6-0.7 3.3-1.1 5-1.1 5.3 0 10.3 3.5 15.1 10.6 4.5 6.6 6.8 14.3 6.9 22.3z"/>
	<path class="st0" d="m245.1 871.9c0 4-3.8 6.8-11.4 8.1-4.6 0.9-11.9 1.3-21.9 1.3h-5.4c-1.9 0-3.7 0.1-5.6 0.3-6.5 0-11.5-0.4-14.7-1.3-4.4-1.2-6.5-3.3-6.5-6.5 0-1.7 1.9-3.3 5.8-5.2s5.8-3.4 5.8-4.9-1-2.5-2.9-3.2c-2.1-0.7-4.3-1.1-6.5-1.1h-24.6c-2 0-4.1 0.5-5.8 1.5-1.5 0.7-2.4 2.1-2.5 3.7 0 1.2 1.8 2.3 5.3 3.5s5.3 3 5.3 5.6c0 3.2-3.8 5.5-11.1 6.7-7 0.9-14 1.3-21.1 1.2-6.9 0-12.2-0.4-15.6-1.3-5.3-1.4-7.9-3.9-7.9-7.6 0-2.1 1.4-3.6 4.3-4.8 4.4-1.7 6.7-2.5 6.9-2.7 2.9-2.2 7.8-7 14.9-14.8 7.3-8 14.2-16.4 20.7-25.2 7.4-9.9 11.9-17.6 13.6-23 1.4-4.5 3.6-7.6 6.8-9.4s7.6-2.5 13.8-2.5c9.2 0 16.5 2.3 22.1 7 4.3 3.6 7.6 9 9.9 16.1l14.9 44.3c0.5 1.7 1.2 3.4 2.1 5 0.5 1.2 1.3 2.2 2.4 2.9 2.8 0.9 4.9 1.5 6 1.9 1.7 0.6 2.9 2.4 2.9 4.4zm-59.4-30.1c0-3.4-1.1-7.2-3.5-11.3s-4.2-6.3-5.6-6.3c-1.7 0-4.7 3.5-9.4 10.6-2.6 3.9-3.9 6.7-3.9 8.3 0 0.5 0.4 0.9 1.3 1.2 1.3 0.4 2.6 0.5 4 0.5h6.8c2.6 0.1 5.1-0.1 7.6-0.6 1.7-0.4 2.7-1.2 2.7-2.4z"/>
	<path class="st0" d="m397.8 799c0 3.1-2.5 5.5-7.4 6.8s-7.8 3.4-8.3 6.2l-8.3 37.2c-2.4 10.6-7.8 18.6-16.4 24.1-9.4 6.1-22.9 9.1-40.4 9.1-18.6 0-32.5-2.6-41.6-7.9-8.3-4.8-12.5-11.6-12.5-20.2 0.1-2.2 0.3-4.4 0.7-6.6l6.8-30.4c0.4-1.4 0.6-2.9 0.6-4.4 0-3.4-1.9-5.6-5.8-6.5s-5.8-2.7-5.8-5.5c0-3.5 4.4-6.1 13.2-7.7 6.8-1.3 15.3-1.9 25.7-1.9 9 0 15.8 0.4 20.4 1.3 7.2 1.4 10.8 3.8 10.8 7.5 0 3-2.5 5.4-7.4 7-4.7 1.3-8.2 5.4-8.8 10.3l-5.5 34.2c-0.1 0.5-0.2 1.1-0.1 1.7 0 3.2 1.6 6.2 4.2 8.1 2.8 2.3 6.7 3.3 11.8 3.3 9.2 0 16.4-2.8 21.5-8.5 4.3-4.7 7.2-11.4 8.9-19.9 1.2-7.4 1.8-14.8 1.6-22.3v-2.3c0-2.9-2.4-5-7.1-6.2s-7.1-3.1-7.1-5.8c0-3.5 3-5.9 9.2-7.2 3.9-0.8 9.7-1.2 17.5-1.2 6.5-0.1 12.9 0.2 19.3 1.1 6.7 1.1 10.3 3.3 10.3 6.6z"/>
	<path class="st0" d="m519.9 811c0.1 3.5-1.4 6.9-4 9.3-2.6 2.3-6.3 3.5-10.7 3.5s-8.3-2.7-11.7-7.9-6-7.9-7.9-7.9c-1.3 0-2.6 0.6-3.5 1.6-1 0.9-1.7 2.1-1.8 3.4l-6.3 43.2c-0.1 0.5-0.2 1-0.1 1.6v1.1c0 4.1 3.2 7.2 9.4 9.1 3 0.9 4.4 2.3 4.4 4.3 0 3.8-4.9 6.4-14.6 7.8-9 1.1-18.2 1.5-27.3 1.4-10.5 0-17.8-0.3-21.4-0.8-8.5-1.2-12.8-3.5-12.8-7.2 0-0.5 0-1 0.1-1.5 0.6-2.2 2.5-3.5 5.8-4.3 6.9-1.7 11-5.3 12.1-10.8l8.3-44.7c0.2-1-0.1-2.1-0.7-2.9-0.8-0.9-2-1.4-3.2-1.3-2.1 0-5 2.5-8.6 7.6s-8.3 7.6-13.9 7.6c-3.2 0.1-6.4-0.7-9.2-2.5-2.9-1.9-4.2-4.2-3.8-7.2 0-5.4 2.5-10.6 7.4-15.5s10.1-7.2 15.7-7.2c1.5 0 3 0.1 4.4 0.4 2.3 0.5 4.7 0.9 7.1 1.1h58.3c1.8-0.1 3.6-0.3 5.4-0.8s3.6-0.7 5.4-0.8c4.9 0 9.4 2.4 12.2 6.4 3.7 4 5.4 8.9 5.5 13.9z"/>
	<path class="st0" d="m650.7 825.3c0 15.6-7.5 29-22.6 40.3s-33.5 17-55.1 17c-17.1 0-30.4-3.6-40-10.9-8.3-6.4-12.6-14.2-12.6-23.6 0-15.5 7.5-28.9 22.5-40.1s33.5-16.8 55.3-16.8c15 0 27.2 2.7 36.7 8.2 10.5 6.1 15.8 14.7 15.8 25.9zm-47.7-2.3c0-5-0.4-8.4-1.1-10.3-1.4-3.5-4.2-5.3-8.3-5.3-7.4 0-13.5 4.8-18.7 14.5-4.6 8.5-7 17.9-6.9 27.5 0 5.2 0.4 8.7 1.1 10.6 1.4 3.6 4.4 5.8 9.2 6.3 6.8 0.9 12.8-3.6 17.8-13.3 4.7-9.3 7.1-19.6 6.9-30z"/>
	<path class="st0" d="m818.1 800.7c0 2.3-1.7 4.1-5.1 5.2-7.4 2.3-11.1 5.8-11.1 10.6l-4.2 40.5c0 5.4 2.4 9.2 6.9 11.5 2.2 1.2 3.3 2.5 3.3 3.9 0 4-4.3 6.8-12.9 8.1-5.3 0.9-13.6 1.3-25 1.3-6 0.1-12-0.3-17.9-1.2-6.5-1.2-9.9-3.4-9.9-6.6 0-0.4 0-0.8 0.1-1.2 0.4-2.3 2.3-4.1 4.6-4.4 5.5-1.2 8.9-4.7 9.9-10.5l2.6-16.3c0.1-0.5 0.2-1.1 0.1-1.7 0-1.1-0.6-1.8-1.5-1.8-1.4 0-2.8 0.6-3.6 1.8l-21 23.5c-1.7 2.2-3.8 4-6.1 5.6-1.6 0.9-3.3 1.3-5.1 1.4-0.6 0-1.4-0.1-2.5-0.2-1.3-0.2-2.5-0.8-3.5-1.6-1.2-0.9-2.1-2.1-2.6-3.5l-9.9-21.5c-0.4-1.1-0.8-2.3-1.3-3.5-0.2-1.1-1.3-1.7-2.4-1.5h-0.1c-0.9 0.2-1.7 0.9-2.1 1.8-0.6 1.3-1.1 2.6-1.5 3.9l-4.2 16.8c-0.1 1.3-0.3 2.1-0.3 2.5 0 2.2 1.4 4 4.3 5.5s4.3 3.1 4.3 4.9c0.3 2.5-1.9 4.4-6.9 5.7-5.1 1.2-10.3 1.8-15.5 1.7h-2.6c-1.3-0.1-2.1-0.2-2.5-0.2-6.9 0-11.7-0.3-14.3-0.9-5-1.1-7.5-3.2-7.5-6.6 0-2.2 1.1-3.9 3.2-5.4 2.6-1.4 5.4-2.7 8-4 1.6-2.3 2.9-4.6 4-7.2 2.7-5.3 4.9-10.8 6.6-16.4 2.7-8.7 4.9-17.6 6.5-26.5 0.1-0.2 0.2-0.5 0.1-0.8v-0.8c0-2.7-2.2-4.6-6.8-5.9s-6.8-3-6.8-5.4c0-3.3 3.9-5.9 11.5-7.7 7.3-1.6 14.8-2.3 22.2-2.3 7.6 0 13.3 0.9 17.1 2.7 3.3 1.7 5.8 4.5 7.8 8.6l9 20c0.6 1.3 1.5 2.4 2.5 3.3 1.1 1.1 2.1 1.6 2.8 1.5 1.5-0.4 2.9-1.1 4-2.3 1.4-1.2 2.7-2.5 3.8-4l14.4-17.5c3.6-4.4 6.9-7.5 10.1-9 4.2-2.1 10.4-3 18.6-3s14.3 0.5 18.5 1.4c6.7 1.6 9.9 4.2 9.9 7.7z"/>
	<path class="st0" d="m951.3 825.3c0 15.6-7.5 29-22.6 40.3s-33.5 17-55.1 17c-17.1 0-30.4-3.6-40-10.9-8.3-6.4-12.6-14.2-12.6-23.6 0-15.5 7.5-28.9 22.5-40.1s33.5-16.8 55.3-16.8c15 0 27.2 2.7 36.7 8.2 10.5 6.1 15.8 14.7 15.8 25.9zm-47.6-2.3c0-5-0.4-8.4-1.1-10.3-1.4-3.5-4.2-5.3-8.3-5.3-7.4 0-13.6 4.8-18.7 14.5-4.6 8.5-7 17.9-6.9 27.5 0 5.2 0.4 8.7 1.1 10.6 1.4 3.6 4.4 5.8 9.2 6.3 6.8 0.9 12.8-3.6 17.8-13.3 4.5-9.3 7-19.6 6.9-30z"/>
	<path class="st0" d="m1077.5 811c0.1 3.5-1.4 6.9-4 9.3-2.6 2.3-6.3 3.5-10.7 3.5s-8.3-2.7-11.7-7.9-6-7.9-7.9-7.9c-1.3 0-2.6 0.6-3.5 1.6-1 0.9-1.7 2.1-1.8 3.4l-6.3 43.2c-0.1 0.5-0.2 1-0.1 1.6v1.1c0 4.1 3.2 7.2 9.4 9.1 3.1 0.9 4.4 2.3 4.4 4.3 0 3.8-4.9 6.4-14.6 7.8-9 1-18.1 1.5-27.2 1.4-10.5 0-17.8-0.3-21.4-0.8-8.5-1.2-12.8-3.5-12.8-7.2 0-0.5 0-1 0.1-1.5 0.6-2.2 2.5-3.5 5.8-4.3 6.9-1.7 11-5.3 12.1-10.8l8.3-44.7c0.2-1-0.1-2.1-0.7-2.9-0.8-0.9-2-1.4-3.2-1.3-2.1 0-5 2.5-8.6 7.6s-8.3 7.6-13.9 7.6c-3.2 0.1-6.4-0.7-9.2-2.5-2.9-1.9-4.2-4.2-3.8-7.2 0-5.4 2.5-10.6 7.4-15.5s10.1-7.3 15.6-7.3c1.5 0 3 0.1 4.4 0.4 2.3 0.5 4.7 0.9 7.1 1.1h58.3c1.8-0.1 3.6-0.3 5.4-0.8s3.6-0.7 5.4-0.8c4.9 0 9.4 2.4 12.2 6.4 3.7 4.1 5.5 9 5.5 14z"/>
	<path class="st0" d="m1164 799.4c0 2.7-2.6 4.5-7.8 5.6s-8.1 3.3-8.8 6.9l-9.2 45.3c-0.1 0.5-0.1 1-0.3 1.6s-0.1 1-0.1 1.3c0 3.2 2.1 5.6 6.3 7s6.3 3.2 6.3 5.5c0 3.8-3.8 6.4-11.4 7.8-7.1 1-14.3 1.5-21.5 1.4-13.3 0-22.1-0.3-26.5-0.9-9.2-1.2-13.8-3.8-13.8-7.9v-1c0.3-2.3 2.1-3.9 5.4-4.9 7.4-2.1 11.4-6.1 12.5-12l7.8-43.8c0.1-0.6 0.2-1.2 0.1-1.8 0-2.5-2.1-4.1-6.3-4.9s-6.3-2.7-6.3-5.5c0-3.6 4.9-6 14.4-7 7.8-0.7 15.5-1 23.3-0.9 11.3 0 18.9 0.3 23 0.9 8.7 1.2 12.9 3.6 12.9 7.3z"/>
	<path class="st0" d="m1301 798.8c0.1 2.1-1 4.1-2.9 5-1.8 0.8-3.6 1.3-5.6 1.6-2.2 0.3-4.3 1.2-6 2.7-0.4 0.4-1.4 1.8-3.2 4.1l-39.3 55.6c-2.3 3.6-5.1 6.9-8.2 9.9-3.5 3.1-8 4.8-12.6 4.8h-1.9c-4.5-0.2-8.9-2.1-12.1-5.3-2.7-2.9-4.8-6.4-6.1-10.2l-20-52.1c-0.5-1.4-1.1-2.7-1.9-3.9-1.2-1.4-2.8-2.5-4.6-3.1s-3.6-1.3-5.4-2.1c-1.7-0.8-2.4-2.3-2.4-4.4 0-3.7 4.4-6.4 13.5-7.9 6.5-1.2 15-1.7 25.4-1.7 9 0 15.4 0.3 18.9 1 6.5 1.2 9.9 3.6 9.9 7.5 0 2.7-1.8 4.5-5.6 5.7s-5.6 2.7-5.3 4.4c0 3.6 1.7 9.9 4.9 18.5s5.7 13 7.4 13c1.9 0 5.7-4.5 11.3-13.5s8.3-15.7 8.3-19.9c0-1.2-1.3-2.7-3.6-4.5s-3.6-3.4-3.6-4.7c0-2.3 1.8-4.1 5.3-5.3 4-1.4 11-2.2 20.7-2.2 8.1 0 13.5 0.3 16.4 0.8 5.6 0.8 8.3 2.9 8.3 6.2z"/>
	<path class="st0" d="m1409.8 809.4c0.1 2.6-0.8 5.1-2.6 7-2.1 2.2-5.1 3.1-9.2 3.1s-7.6-2.1-10.3-6.3-8.8-6.3-18.2-6.3c-3.3 0-6.7 0.4-9.9 1.3-2.6 0.9-4.2 2.5-4.4 4.6l-1.7 14.1c0 1.2 1.5 1.8 4.4 1.8s5.3-2.1 7.2-6.1 4.6-6.1 7.9-6.1c4.4 0 7.8 1.9 9.7 5.6 1.6 3.3 2.5 7 2.4 10.8 0 6.4-1.1 11.6-3.2 15.5-2.8 5.2-7.5 7.8-13.9 7.8-4.2 0-6.4-2.2-7.1-6.6s-2.6-6.6-6-6.6c-1.7 0-2.9 0.9-4 2.5-1 1.6-1.6 3.5-1.5 5.5v11.1c0 1.7 0.6 2.8 1.8 3.3s4 0.9 8.3 0.9c11.5 0 19.7-2.7 24.8-8.2s9.6-8.2 13.6-8.2c2.7-0.1 5.4 0.9 7.4 2.8 1.8 1.9 2.8 4.4 2.8 7 0 5.3-2 10.3-5.6 14.2-3.3 4-7.9 6.8-13.1 7.7-1.4 0.1-2.4 0.2-2.9 0.2-1.2 0-2.4-0.1-3.6-0.4-2.2-0.4-4.3-0.7-6.5-0.8h-51.9c-2.1 0-5 0.2-8.6 0.5-8.1 0.7-12.9 1-14.9 1-3.1 0.1-6.2-0.3-9.2-1.4-2.3-1-3.9-3.1-4.3-5.6 0-2.2 1.3-4 3.8-5.6 2.9-1.4 5.8-2.7 8.9-4.1 3.5-4.7 6.4-12 8.8-21.8 2.4-10 3.5-20.3 3.5-30.6 0-2.8-1.8-5.1-5.6-6.6s-5.6-3.5-5.6-6.1 1.7-4.8 5-6.4c3.8-1.7 8-2.5 12.2-2.3 3.1 0 5.3 0.1 6.9 0.2s2.5 0.2 2.9 0.2h51.9c2.9 0 5.8-0.2 8.6-0.6 3.5-0.4 5.7-0.6 6.4-0.6 3.3 0 6.5 1.9 9.7 5.5 3.3 4 4.9 8.5 4.9 13.1z"/>
	<path class="st1" d="m243.1 866.4c0 4.1-3.8 6.9-11.4 8.3-4.6 0.9-11.9 1.3-21.9 1.3h-5.4c-1.9 0-3.7 0.1-5.6 0.3-6.5 0-11.5-0.4-14.7-1.3-4.4-1.2-6.5-3.4-6.5-6.6 0-1.7 1.9-3.4 5.8-5.3s5.8-3.5 5.8-5-1-2.5-2.9-3.3c-2.1-0.7-4.3-1.1-6.5-1.1h-24.6c-2 0-4.1 0.5-5.8 1.5-1.5 0.7-2.4 2.2-2.5 3.8 0 1.2 1.8 2.4 5.3 3.6s5.3 3.1 5.3 5.7c0 3.3-3.8 5.6-11.1 6.8-4.9 0.8-11.8 1.2-21.1 1.2-6.9 0-12.2-0.4-15.6-1.3-5.3-1.4-7.9-4-7.9-7.8 0-2.1 1.4-3.7 4.3-4.9 4.4-1.7 6.7-2.6 6.9-2.8 2.9-2.2 7.8-7.2 14.9-15.1 7.3-8.2 14.2-16.8 20.7-25.8 7.4-10.1 11.9-18 13.6-23.6 1.4-4.6 3.6-7.8 6.8-9.6s7.6-2.6 13.8-2.6c9.2 0 16.5 2.4 22.1 7.1 4.3 3.7 7.6 9.2 9.9 16.4l14.9 45.3c0.5 1.8 1.2 3.5 2.1 5.1 0.5 1.2 1.3 2.2 2.4 3 2.8 0.9 4.9 1.5 6 1.9 1.7 0.9 2.9 2.7 2.9 4.8zm-59.4-30.9c-0.1-4.1-1.3-8-3.5-11.5-2.4-4.2-4.2-6.4-5.6-6.4-1.7 0-4.7 3.6-9.4 10.8-2.6 4-3.9 6.8-3.9 8.5 0 0.5 0.4 0.9 1.3 1.2 1.3 0.4 2.6 0.6 4 0.5h6.8c2.6 0.1 5.1-0.2 7.6-0.6 1.7-0.4 2.7-1.2 2.7-2.5z"/>
	<path class="st1" d="m395.8 791.7c0 3.2-2.5 5.6-7.4 6.9s-7.8 3.5-8.3 6.3l-8.3 38c-2.4 10.8-7.8 19-16.4 24.7-9.4 6.2-22.9 9.3-40.4 9.3-18.6 0-32.5-2.7-41.6-8.1-8.3-4.9-12.5-11.8-12.5-20.7 0.1-2.3 0.3-4.5 0.7-6.7l6.8-31.1c0.4-1.5 0.6-3 0.6-4.5 0-3.5-1.9-5.7-5.8-6.6s-5.8-2.7-5.8-5.6c0-3.6 4.4-6.2 13.2-7.9 6.8-1.3 15.3-1.9 25.7-1.9 9 0 15.8 0.4 20.4 1.3 7.2 1.4 10.8 3.9 10.8 7.6 0 3.1-2.5 5.5-7.4 7.2-4.8 1.4-8.2 5.6-8.8 10.5l-5.5 35c-0.1 0.6-0.2 1.1-0.1 1.7 0 3.3 1.6 6.3 4.2 8.3 2.8 2.3 6.7 3.4 11.8 3.4 9.2 0 16.4-2.9 21.5-8.7 4.3-4.8 7.2-11.6 8.9-20.3 1.2-7.5 1.8-15.1 1.7-22.8v-2.4c0-3-2.4-5.1-7.1-6.3s-7.1-3.2-7.1-5.9c0-3.6 3-6 9.2-7.3 3.9-0.8 9.7-1.2 17.5-1.2 6.5-0.1 12.9 0.2 19.3 1.1 6.6 1.1 10.2 3.4 10.2 6.7z"/>
	<path class="st1" d="m517.9 804c0.1 3.6-1.3 7.1-4 9.5-2.6 2.4-6.3 3.6-10.7 3.6s-8.3-2.7-11.7-8.1-6-8.1-7.9-8.1c-1.3 0-2.6 0.6-3.5 1.6-1 0.9-1.7 2.2-1.8 3.5l-6.3 44.2c-0.1 0.5-0.2 1.1-0.1 1.6v1.2c0 4.2 3.2 7.3 9.4 9.3 3 0.9 4.4 2.4 4.4 4.4 0 3.9-4.9 6.5-14.6 8-6.3 0.9-15.4 1.4-27.2 1.4-10.5 0-17.8-0.3-21.4-0.8-8.5-1.2-12.8-3.6-12.8-7.3 0-0.5 0-1 0.1-1.5 0.6-2.2 2.5-3.6 5.8-4.4 6.9-1.7 11-5.4 12.1-11l8.3-45.7c0.2-1.1-0.1-2.1-0.7-3-0.8-0.9-2-1.4-3.2-1.3-2.1 0-5 2.6-8.6 7.8s-8.3 7.8-13.9 7.8c-3.2 0.1-6.4-0.8-9.2-2.5-2.9-1.9-4.2-4.3-3.8-7.3 0-5.5 2.5-10.8 7.4-15.8s10.1-7.4 15.7-7.4c1.5 0 3 0.1 4.4 0.4 2.3 0.5 4.7 0.9 7.1 1.1h58.3c1.8-0.1 3.6-0.3 5.4-0.8s3.6-0.7 5.4-0.8c4.9 0 9 2.2 12.2 6.5 3.6 3.9 5.3 8.8 5.4 13.9z"/>
	<path class="st1" d="m648.7 818.7c0 15.9-7.5 29.7-22.6 41.2s-33.5 17.3-55.1 17.3c-17.1 0-30.4-3.7-40-11.1-8.3-6.5-12.6-14.5-12.6-24.2 0-15.8 7.5-29.6 22.5-41s33.5-17.2 55.3-17.2c15 0 27.2 2.8 36.7 8.4 10.5 6.3 15.8 15.2 15.8 26.6zm-47.6-2.3c0-5.1-0.4-8.6-1.1-10.5-1.4-3.6-4.2-5.4-8.3-5.4-7.4 0-13.5 4.9-18.7 14.8-4.6 8.7-7 18.4-6.9 28.2 0 5.3 0.4 8.9 1.1 10.8 1.4 3.7 4.4 5.9 9.2 6.4 6.6 0.9 12.6-3.7 17.6-13.7 4.7-9.5 7.2-20 7.1-30.6z"/>
	<path class="st1" d="m816.1 793.5c0 2.4-1.7 4.2-5.1 5.3-7.4 2.3-11.1 5.9-11.1 10.8l-4.2 41.5c0 5.5 2.4 9.4 6.9 11.7 2.2 1.2 3.3 2.5 3.3 4 0 4.1-4.3 6.9-12.9 8.3-5.3 0.9-13.6 1.3-25 1.3-6 0.1-12-0.3-17.9-1.2-6.5-1.2-9.9-3.5-9.9-6.7 0-0.4 0-0.8 0.1-1.2 0.4-2.3 2.3-4.1 4.6-4.5 5.5-1.2 8.9-4.8 9.9-10.7l2.6-16.6c0.1-0.6 0.2-1.1 0.1-1.7 0-1.1-0.6-1.8-1.5-1.8-1.4 0-2.8 0.6-3.6 1.8l-21 24.1c-1.7 2.2-3.8 4.1-6.1 5.7-1.6 0.9-3.3 1.4-5.1 1.4-0.6 0-1.4-0.1-2.5-0.2-1.3-0.2-2.5-0.8-3.5-1.6-1.2-0.9-2.2-2.2-2.6-3.6l-9.9-22c-0.4-1.1-0.8-2.3-1.3-3.6-0.2-1.1-1.3-1.8-2.4-1.5h-0.1c-1 0.2-1.7 0.9-2.1 1.8-0.6 1.3-1.1 2.6-1.5 4l-4.2 17.2c-0.1 1.3-0.3 2.1-0.3 2.5 0 2.2 1.4 4.1 4.3 5.6s4.3 3.2 4.3 5c0.3 2.5-1.9 4.5-6.9 5.8-5.1 1.3-10.3 1.8-15.5 1.7h-2.6c-1.3-0.1-2.1-0.2-2.5-0.2-6.9 0-11.7-0.3-14.3-0.9-5-1.1-7.5-3.3-7.5-6.7 0.1-2.3 1.3-4.3 3.2-5.5 2.6-1.4 5.4-2.7 8-4.1 1.6-2.3 2.9-4.8 4-7.3 2.7-5.4 4.9-11 6.6-16.8 2.7-8.9 4.9-18 6.5-27.2 0.1-0.3 0.2-0.5 0.1-0.8v-0.8c0-2.7-2.2-4.7-6.8-6s-6.8-3.1-6.8-5.5c0-3.4 3.9-6 11.5-7.9 7.3-1.6 14.7-2.4 22.2-2.3 7.6 0 13.3 0.9 17.1 2.8 3.3 1.7 5.8 4.6 7.8 8.8l9 20.5c0.6 1.3 1.5 2.4 2.5 3.4 1.1 1.1 2.1 1.6 2.8 1.5 1.5-0.4 2.9-1.2 4-2.3 1.4-1.2 2.7-2.6 3.8-4.1l14.4-18c3.6-4.5 6.9-7.6 10.1-9.2 4.2-2.1 10.4-3.1 18.6-3.1s14.3 0.5 18.5 1.4c6.7 1.5 9.9 4.1 9.9 7.7z"/>
	<path class="st1" d="m949.3 818.7c0 15.9-7.5 29.7-22.6 41.2s-33.5 17.3-55.1 17.3c-17.1 0-30.4-3.7-40-11.1-8.3-6.5-12.6-14.5-12.6-24.2 0-15.8 7.5-29.6 22.5-41s33.5-17.2 55.3-17.2c15 0 27.2 2.8 36.7 8.4 10.5 6.3 15.8 15.2 15.8 26.6zm-47.6-2.3c0-5.1-0.4-8.6-1.1-10.5-1.4-3.6-4.2-5.4-8.3-5.4-7.4 0-13.6 4.9-18.7 14.8-4.6 8.7-7 18.4-6.9 28.2 0 5.3 0.4 8.9 1.1 10.8 1.4 3.7 4.4 5.9 9.2 6.4 6.8 0.9 12.8-3.7 17.8-13.6 4.5-9.6 7-20.1 6.9-30.7z"/>
	<path class="st1" d="m1075.5 804c0.1 3.6-1.3 7.1-4 9.5-2.6 2.4-6.3 3.6-10.7 3.6s-8.3-2.7-11.7-8.1-6-8.1-7.9-8.1c-1.3 0-2.6 0.6-3.5 1.6-1 0.9-1.7 2.2-1.8 3.5l-6.3 44.2c-0.1 0.5-0.2 1.1-0.1 1.6v1.2c0 4.2 3.2 7.3 9.4 9.3 3.1 0.9 4.4 2.4 4.4 4.4 0 3.9-4.9 6.5-14.6 8-6.3 0.9-15.4 1.4-27.2 1.4-10.5 0-17.8-0.3-21.4-0.8-8.5-1.2-12.8-3.6-12.8-7.3 0-0.5 0-1 0.1-1.5 0.6-2.2 2.5-3.6 5.8-4.4 6.9-1.7 11-5.4 12.1-11l8.3-45.7c0.2-1.1-0.1-2.1-0.7-3-0.8-1-2-1.5-3.2-1.4-2.1 0-5 2.6-8.6 7.8s-8.3 7.8-13.9 7.8c-3.2 0.1-6.4-0.8-9.2-2.5-2.9-1.9-4.2-4.3-3.8-7.3 0-5.5 2.5-10.8 7.4-15.8s10.1-7.4 15.7-7.4c1.5 0 3 0.1 4.4 0.4 2.3 0.5 4.7 0.9 7.1 1.1h58.3c1.8-0.1 3.6-0.3 5.4-0.8s3.6-0.7 5.4-0.8c4.9 0 9 2.2 12.2 6.5 3.6 4 5.4 8.9 5.4 14z"/>
	<path class="st1" d="m1162 792.2c0 2.7-2.6 4.6-7.8 5.7s-8.1 3.4-8.8 7l-9.2 46.3c-0.1 0.5-0.1 1-0.3 1.6s-0.1 1-0.1 1.3c0 3.3 2.1 5.7 6.3 7.1s6.3 3.3 6.3 5.6c0 3.9-3.8 6.5-11.4 8-7.1 1.1-14.3 1.5-21.5 1.4-13.3 0-22.1-0.3-26.5-0.9-9.2-1.2-13.8-3.9-13.8-8.1v-0.9c0.3-2.4 2.1-4 5.4-5 7.4-2.1 11.4-6.2 12.5-12.2l7.8-44.8c0.1-0.6 0.2-1.2 0.1-1.8 0-2.5-2.1-4.2-6.3-5s-6.3-2.7-6.3-5.6c0-3.7 4.9-6.1 14.4-7.2 7.8-0.7 15.5-1 23.3-0.9 11.3 0 18.9 0.3 23 0.9 8.7 1.2 12.9 3.7 12.9 7.5z"/>
	<path class="st1" d="m1299 791.6c0.1 2.1-1 4.1-2.9 5.1-1.8 0.8-3.6 1.4-5.6 1.6-2.2 0.3-4.3 1.2-6 2.7-0.4 0.4-1.4 1.8-3.2 4.2l-39.3 56.8c-2.3 3.7-5.1 7.1-8.2 10.1-3.5 3.1-8 4.9-12.6 4.9h-1.9c-4.6-0.2-8.9-2.1-12.1-5.4-2.8-3-4.8-6.6-6.1-10.4l-20-53.3c-0.5-1.4-1.1-2.8-1.9-4-1.2-1.5-2.8-2.6-4.6-3.2s-3.6-1.3-5.4-2.1c-1.7-0.8-2.4-2.3-2.4-4.5 0-3.8 4.4-6.5 13.5-8.1 6.5-1.2 15-1.7 25.4-1.7 9 0 15.4 0.3 18.9 1 6.5 1.2 9.9 3.7 9.9 7.6 0 2.7-1.8 4.6-5.6 5.8s-5.6 2.7-5.3 4.5c0 3.7 1.7 10.1 4.9 19s5.7 13.3 7.4 13.3c1.9 0 5.7-4.6 11.3-13.8s8.3-16 8.3-20.3c0-1.2-1.3-2.8-3.6-4.6s-3.6-3.5-3.6-4.8c0-2.4 1.8-4.2 5.3-5.4 4-1.4 11-2.2 20.7-2.2 8.1 0 13.5 0.3 16.4 0.8 5.6 0.8 8.3 3 8.3 6.4z"/>
	<path class="st1" d="m1407.8 802.4c0.1 2.6-0.8 5.2-2.6 7.1-2.1 2.2-5.1 3.2-9.2 3.2s-7.6-2.1-10.3-6.4-8.8-6.4-18.2-6.4c-3.3 0-6.7 0.4-9.9 1.3-2.6 0.9-4.2 2.5-4.4 4.7l-1.7 14.4c0 1.2 1.5 1.8 4.4 1.8s5.3-2.1 7.2-6.2 4.6-6.2 7.9-6.2c4.4 0 7.8 1.9 9.7 5.7 1.6 3.4 2.5 7.2 2.4 11 0 6.5-1.1 11.8-3.2 15.8-2.8 5.3-7.5 8-13.9 8-4.2 0-6.4-2.2-7.1-6.7s-2.6-6.7-6-6.7c-1.7 0-2.9 0.9-4 2.6-1 1.7-1.6 3.6-1.5 5.6v11.3c0 1.7 0.6 2.9 1.8 3.4s4 0.9 8.3 0.9c11.5 0 19.7-2.8 24.8-8.4s9.6-8.4 13.6-8.4c2.8-0.1 5.4 0.9 7.4 2.9 1.8 1.9 2.8 4.5 2.8 7.1-0.3 10.9-8 20.1-18.6 22.5-1.4 0.1-2.4 0.2-2.9 0.2-1.2 0-2.4-0.1-3.6-0.4-2.2-0.4-4.3-0.7-6.5-0.8h-51.9c-2.1 0-5 0.2-8.6 0.5-8.1 0.7-12.9 1-14.9 1-3.1 0.1-6.2-0.3-9.2-1.4-2.3-1-4-3.2-4.3-5.7 0-2.2 1.3-4.1 3.8-5.7 2.9-1.4 5.8-2.8 8.9-4.2 3.5-4.8 6.4-12.2 8.8-22.3 2.4-10.3 3.5-20.8 3.5-31.3 0-2.9-1.8-5.2-5.6-6.7s-5.6-3.6-5.6-6.2 1.7-4.9 5-6.5c3.8-1.7 8-2.5 12.2-2.4 3.1 0 5.3 0.1 6.9 0.2s2.5 0.2 2.9 0.2h51.9c2.9 0 5.8-0.2 8.6-0.6 3.5-0.4 5.7-0.6 6.4-0.6 3.3 0 6.5 1.9 9.7 5.6s4.9 8.4 4.8 13.2z"/>
</svg>
